<?xml version="1.0" standalone="no"?>
<!DOCTYPE svg PUBLIC "-//W3C//DTD SVG 20010904//EN"
 "http://www.w3.org/TR/2001/REC-SVG-20010904/DTD/svg10.dtd">
<svg version="1.0" xmlns="http://www.w3.org/2000/svg"
 width="1024.000000pt" height="1024.000000pt" viewBox="0 0 1024.000000 1024.000000"
 preserveAspectRatio="xMidYMid meet">
<metadata>
Created by potrace 1.14, written by Peter Selinger 2001-2017
</metadata>
<g transform="translate(0.000000,1024.000000) scale(0.100000,-0.100000)"
fill="#000000" stroke="none">
<path d="M4210 7289 c-315 -36 -587 -133 -835 -296 -197 -130 -434 -397 -531
-595 -16 -32 -31 -58 -34 -58 -3 0 -18 177 -34 393 -15 215 -30 407 -33 425
l-5 32 -344 0 -344 0 0 -2265 0 -2265 379 0 380 0 4 1258 c3 851 8 1284 16
1342 53 403 161 644 385 865 117 115 208 174 372 240 226 92 402 125 697 132
l217 6 0 398 0 399 -107 -1 c-60 -1 -142 -5 -183 -10z"/>
<path d="M6295 7293 c-343 -40 -550 -99 -807 -229 -370 -188 -640 -444 -854
-811 -238 -408 -350 -897 -330 -1443 20 -563 159 -1015 429 -1392 344 -480
815 -769 1410 -865 161 -26 625 -26 782 0 473 78 798 245 1116 574 166 172
276 331 375 538 46 98 124 302 124 326 0 5 -158 9 -375 9 l-375 0 -40 -87
c-148 -320 -421 -564 -746 -666 -159 -50 -243 -61 -464 -62 -179 0 -218 3
-309 23 -294 66 -527 193 -726 397 -165 168 -271 342 -345 564 -43 129 -85
337 -96 479 l-7 92 1800 0 1800 0 7 268 c9 357 -9 539 -80 785 -128 447 -376
817 -724 1081 -400 303 -792 428 -1328 425 -114 -1 -220 -4 -237 -6z m560
-673 c396 -85 733 -330 902 -655 80 -155 135 -354 149 -538 l7 -87 -1422 0
-1421 0 0 24 c0 47 31 203 61 306 98 337 299 591 615 774 166 96 344 159 541
191 131 21 436 13 568 -15z"/>
</g>
</svg>
